<mxfile host="Electron" modified="2023-08-26T11:35:04.540Z" agent="Mozilla/5.0 (Macintosh; Intel Mac OS X 10_15_7) AppleWebKit/537.36 (KHTML, like Gecko) draw.io/21.2.8 Chrome/112.0.5615.165 Electron/24.2.0 Safari/537.36" etag="YnWjJHCo-LYk8B20dflv" version="21.2.8" type="device">
  <diagram name="Page-1" id="ByhH9wrMw8ksEH5SK-M1">
    <mxGraphModel dx="513" dy="344" grid="1" gridSize="10" guides="1" tooltips="1" connect="1" arrows="1" fold="1" page="1" pageScale="1" pageWidth="850" pageHeight="1100" math="0" shadow="0">
      <root>
        <mxCell id="0" />
        <mxCell id="1" parent="0" />
        <mxCell id="JgVfi2fWv2OHyq_14LpX-1" value="&lt;b&gt;Mediator&lt;/b&gt;" style="html=1;fontSize=12;startSize=25;arcSize=12;spacing=2;fillColor=none;fontStyle=2" vertex="1" parent="1">
          <mxGeometry x="80" y="40" width="125" height="30" as="geometry" />
        </mxCell>
        <mxCell id="JgVfi2fWv2OHyq_14LpX-2" value="&lt;b&gt;Colleague&lt;/b&gt;" style="html=1;fontSize=12;startSize=25;arcSize=12;spacing=2;fillColor=none;fontStyle=2" vertex="1" parent="1">
          <mxGeometry x="370" y="40" width="125" height="30" as="geometry" />
        </mxCell>
        <mxCell id="JgVfi2fWv2OHyq_14LpX-3" value="&lt;b&gt;ConcreteMediator&lt;/b&gt;" style="html=1;fontSize=12;startSize=25;arcSize=12;spacing=2;fillColor=none;" vertex="1" parent="1">
          <mxGeometry x="80" y="130" width="125" height="30" as="geometry" />
        </mxCell>
        <mxCell id="JgVfi2fWv2OHyq_14LpX-4" value="&lt;b&gt;Concrete&lt;/b&gt;&lt;b style=&quot;border-color: var(--border-color);&quot;&gt;Colleague1&lt;/b&gt;" style="html=1;fontSize=12;startSize=25;arcSize=12;spacing=2;fillColor=none;" vertex="1" parent="1">
          <mxGeometry x="290" y="130" width="125" height="30" as="geometry" />
        </mxCell>
        <mxCell id="JgVfi2fWv2OHyq_14LpX-5" value="&lt;b&gt;Concrete&lt;/b&gt;&lt;b style=&quot;border-color: var(--border-color);&quot;&gt;Colleague2&lt;/b&gt;" style="html=1;fontSize=12;startSize=25;arcSize=12;spacing=2;fillColor=none;" vertex="1" parent="1">
          <mxGeometry x="450" y="130" width="125" height="30" as="geometry" />
        </mxCell>
        <mxCell id="JgVfi2fWv2OHyq_14LpX-6" value="" style="edgeStyle=orthogonalEdgeStyle;rounded=0;orthogonalLoop=1;jettySize=auto;html=1;fontSize=12;startSize=30;endArrow=block;endFill=0;exitX=0.5;exitY=0;exitDx=0;exitDy=0;entryX=0.5;entryY=1;entryDx=0;entryDy=0;" edge="1" parent="1" source="JgVfi2fWv2OHyq_14LpX-3" target="JgVfi2fWv2OHyq_14LpX-1">
          <mxGeometry relative="1" as="geometry">
            <mxPoint x="210" y="164" as="sourcePoint" />
            <mxPoint x="210" y="130" as="targetPoint" />
          </mxGeometry>
        </mxCell>
        <mxCell id="JgVfi2fWv2OHyq_14LpX-7" value="" style="edgeStyle=orthogonalEdgeStyle;rounded=0;orthogonalLoop=1;jettySize=auto;html=1;fontSize=12;startSize=30;endArrow=block;endFill=0;exitX=0.5;exitY=0;exitDx=0;exitDy=0;entryX=0.5;entryY=1;entryDx=0;entryDy=0;" edge="1" parent="1" source="JgVfi2fWv2OHyq_14LpX-4" target="JgVfi2fWv2OHyq_14LpX-2">
          <mxGeometry relative="1" as="geometry">
            <mxPoint x="153" y="140" as="sourcePoint" />
            <mxPoint x="153" y="80" as="targetPoint" />
          </mxGeometry>
        </mxCell>
        <mxCell id="JgVfi2fWv2OHyq_14LpX-8" value="" style="edgeStyle=orthogonalEdgeStyle;rounded=0;orthogonalLoop=1;jettySize=auto;html=1;fontSize=12;startSize=30;endArrow=block;endFill=0;entryX=0.5;entryY=1;entryDx=0;entryDy=0;" edge="1" parent="1" source="JgVfi2fWv2OHyq_14LpX-5" target="JgVfi2fWv2OHyq_14LpX-2">
          <mxGeometry relative="1" as="geometry">
            <mxPoint x="363" y="140" as="sourcePoint" />
            <mxPoint x="443" y="80" as="targetPoint" />
          </mxGeometry>
        </mxCell>
        <mxCell id="JgVfi2fWv2OHyq_14LpX-9" value="" style="endArrow=blockThin;html=1;rounded=0;endFill=1;entryX=1;entryY=0.5;entryDx=0;entryDy=0;exitX=0;exitY=0.5;exitDx=0;exitDy=0;" edge="1" parent="1" source="JgVfi2fWv2OHyq_14LpX-2" target="JgVfi2fWv2OHyq_14LpX-1">
          <mxGeometry width="50" height="50" relative="1" as="geometry">
            <mxPoint x="320" y="60" as="sourcePoint" />
            <mxPoint x="370" y="10" as="targetPoint" />
          </mxGeometry>
        </mxCell>
        <mxCell id="JgVfi2fWv2OHyq_14LpX-12" value="mediator" style="edgeLabel;html=1;align=center;verticalAlign=middle;resizable=0;points=[];" vertex="1" connectable="0" parent="JgVfi2fWv2OHyq_14LpX-9">
          <mxGeometry x="-0.8538" y="-1" relative="1" as="geometry">
            <mxPoint x="-13" y="-8" as="offset" />
          </mxGeometry>
        </mxCell>
        <mxCell id="JgVfi2fWv2OHyq_14LpX-10" value="" style="endArrow=blockThin;html=1;rounded=0;endFill=1;entryX=0;entryY=0.5;entryDx=0;entryDy=0;exitX=1;exitY=0.5;exitDx=0;exitDy=0;" edge="1" parent="1" source="JgVfi2fWv2OHyq_14LpX-3" target="JgVfi2fWv2OHyq_14LpX-4">
          <mxGeometry width="50" height="50" relative="1" as="geometry">
            <mxPoint x="380" y="65" as="sourcePoint" />
            <mxPoint x="215" y="65" as="targetPoint" />
          </mxGeometry>
        </mxCell>
        <mxCell id="JgVfi2fWv2OHyq_14LpX-11" value="" style="endArrow=blockThin;html=1;rounded=0;endFill=1;entryX=0.25;entryY=1;entryDx=0;entryDy=0;exitX=0.75;exitY=1;exitDx=0;exitDy=0;edgeStyle=orthogonalEdgeStyle;" edge="1" parent="1" source="JgVfi2fWv2OHyq_14LpX-3" target="JgVfi2fWv2OHyq_14LpX-5">
          <mxGeometry width="50" height="50" relative="1" as="geometry">
            <mxPoint x="215" y="155" as="sourcePoint" />
            <mxPoint x="300" y="155" as="targetPoint" />
            <Array as="points">
              <mxPoint x="174" y="180" />
              <mxPoint x="481" y="180" />
            </Array>
          </mxGeometry>
        </mxCell>
      </root>
    </mxGraphModel>
  </diagram>
</mxfile>
